<?xml version="1.0" standalone="no"?>
<!DOCTYPE svg PUBLIC "-//W3C//DTD SVG 20010904//EN"
 "http://www.w3.org/TR/2001/REC-SVG-20010904/DTD/svg10.dtd">
<svg version="1.0" xmlns="http://www.w3.org/2000/svg"
 width="869.000000pt" height="307.000000pt" viewBox="0 0 869.000000 307.000000"
 preserveAspectRatio="xMidYMid meet">
<metadata>
Created by potrace 1.16, written by Peter Selinger 2001-2019
</metadata>
<g transform="translate(0.000000,307.000000) scale(0.100000,-0.100000)"
fill="#000000" stroke="none">
<path d="M1175 2807 c-115 -39 -204 -108 -271 -212 -45 -71 -435 -845 -574
-1140 -224 -476 -254 -551 -266 -668 -26 -253 154 -508 411 -583 77 -22 209
-22 295 0 141 37 297 136 435 275 38 39 74 71 79 71 4 0 52 -42 106 -93 195
-188 365 -270 561 -270 323 1 577 278 557 608 -6 89 -35 172 -133 380 -28 61
-91 196 -140 300 -138 296 -522 1052 -571 1127 -57 85 -121 142 -204 182 -55
26 -79 31 -155 33 -55 2 -105 -2 -130 -10z m240 -178 c79 -37 123 -99 259
-366 133 -259 373 -749 495 -1011 180 -386 186 -403 179 -541 -3 -67 -10 -99
-32 -144 -62 -129 -192 -217 -335 -225 -170 -10 -332 70 -515 253 l-76 75 59
78 c123 161 207 316 252 462 19 61 24 98 24 195 0 114 -1 123 -32 187 -98 208
-336 305 -560 227 -174 -60 -293 -227 -293 -412 0 -174 110 -429 285 -661 l59
-79 -105 -101 c-110 -105 -175 -150 -281 -195 -55 -23 -77 -26 -173 -26 -94 0
-117 3 -160 23 -119 54 -190 135 -227 255 -26 86 -20 184 16 279 75 197 706
1485 790 1611 46 69 89 104 159 129 64 23 146 18 212 -13z m-5 -960 c55 -25
105 -71 133 -124 18 -33 22 -56 22 -140 0 -109 -11 -155 -71 -285 -35 -74
-169 -285 -197 -308 -30 -25 -212 268 -263 423 -39 117 -39 229 -1 307 50 102
127 146 257 147 55 0 87 -5 120 -20z"/>
<path d="M4280 2307 c-149 -79 -94 -309 74 -309 53 0 84 13 120 48 36 37 46
63 46 123 0 62 -30 109 -90 139 -56 28 -96 28 -150 -1z"/>
<path d="M5350 1595 l0 -736 118 3 117 3 3 38 c4 43 10 46 41 13 12 -13 50
-37 84 -52 51 -23 76 -28 142 -28 234 0 431 151 490 375 17 63 19 214 4 279
-18 80 -71 172 -134 235 -99 99 -210 145 -350 145 -91 0 -162 -21 -220 -65
l-45 -35 0 280 0 280 -125 0 -125 0 0 -735z m595 29 c200 -69 238 -381 61
-501 -60 -41 -103 -53 -191 -53 -77 0 -128 18 -183 65 l-32 27 2 195 3 196 37
30 c82 66 187 80 303 41z"/>
<path d="M7530 1595 l0 -735 108 0 c117 0 132 6 132 52 l0 28 44 -34 c45 -34
107 -59 177 -70 62 -11 178 12 257 49 317 150 390 590 140 839 -107 106 -229
152 -383 144 -83 -5 -154 -32 -202 -77 -12 -12 -25 -21 -28 -21 -3 0 -5 126
-5 280 l0 280 -120 0 -120 0 0 -735z m602 23 c59 -25 119 -89 143 -151 24 -64
18 -194 -13 -253 -27 -54 -92 -109 -150 -128 -57 -20 -182 -21 -226 -2 -19 8
-52 31 -75 51 l-41 37 0 183 0 183 41 36 c85 77 206 94 321 44z"/>
<path d="M3421 1854 c-177 -47 -316 -199 -356 -389 -18 -88 -18 -132 0 -220
46 -218 212 -376 427 -405 121 -17 216 7 297 75 30 26 31 26 31 5 0 -12 5 -30
10 -41 10 -17 22 -19 125 -19 l115 0 0 495 0 495 -109 0 c-119 0 -141 -9 -141
-56 0 -24 0 -24 -45 11 -25 19 -69 41 -97 50 -64 19 -185 18 -257 -1z m294
-233 c22 -10 55 -30 73 -45 l32 -28 0 -193 0 -193 -35 -31 c-53 -46 -101 -64
-180 -65 -97 -1 -167 25 -225 83 -120 120 -102 346 34 439 62 41 94 50 186 51
52 0 87 -5 115 -18z"/>
<path d="M5039 1856 c-43 -15 -102 -50 -119 -71 -19 -23 -30 -18 -30 13 0 46
-15 52 -132 52 l-108 0 0 -495 0 -495 120 0 120 0 0 344 0 344 40 35 c55 50
131 71 232 64 l78 -5 0 108 c0 89 -3 109 -16 114 -28 11 -148 6 -185 -8z"/>
<path d="M6852 1852 c-29 -11 -70 -33 -92 -51 -21 -17 -41 -31 -44 -31 -3 0
-6 13 -6 28 0 46 -15 52 -127 52 l-103 0 0 -495 0 -495 125 0 125 0 0 349 0
349 31 26 c52 44 91 59 165 64 101 6 156 -19 187 -85 21 -46 22 -62 25 -375
l3 -328 120 0 119 0 0 340 c0 358 -5 416 -45 486 -33 56 -106 121 -173 152
-77 36 -230 42 -310 14z"/>
<path d="M4240 1355 l0 -495 120 0 120 0 0 495 0 495 -120 0 -120 0 0 -495z"/>
</g>
</svg>
